<mxfile host="app.diagrams.net" modified="2022-10-26T02:53:22.104Z" agent="5.0 (Windows NT 10.0; Win64; x64) AppleWebKit/537.36 (KHTML, like Gecko) Chrome/106.0.0.0 Safari/537.36" etag="OlgdGH-YOOTL3J8p74oq" version="20.4.1" type="github">
  <diagram id="2NmkPExNEDpacEzLqVlR" name="第 1 页">
    <mxGraphModel dx="834" dy="443" grid="1" gridSize="10" guides="1" tooltips="1" connect="1" arrows="1" fold="1" page="1" pageScale="1" pageWidth="827" pageHeight="1169" math="0" shadow="0">
      <root>
        <mxCell id="0" />
        <mxCell id="1" parent="0" />
        <mxCell id="X9OZlVAOR6Cq23795ibG-1" value="A" style="text;html=1;align=center;verticalAlign=middle;resizable=0;points=[];autosize=1;strokeColor=none;fillColor=none;" vertex="1" parent="1">
          <mxGeometry x="257.5" y="30" width="30" height="30" as="geometry" />
        </mxCell>
        <mxCell id="X9OZlVAOR6Cq23795ibG-2" value="B" style="text;html=1;align=center;verticalAlign=middle;resizable=0;points=[];autosize=1;strokeColor=none;fillColor=none;" vertex="1" parent="1">
          <mxGeometry x="207.5" y="80" width="30" height="30" as="geometry" />
        </mxCell>
        <mxCell id="X9OZlVAOR6Cq23795ibG-3" value="C" style="text;html=1;align=center;verticalAlign=middle;resizable=0;points=[];autosize=1;strokeColor=none;fillColor=none;" vertex="1" parent="1">
          <mxGeometry x="307.5" y="80" width="30" height="30" as="geometry" />
        </mxCell>
        <mxCell id="X9OZlVAOR6Cq23795ibG-4" value="D" style="text;html=1;align=center;verticalAlign=middle;resizable=0;points=[];autosize=1;strokeColor=none;fillColor=none;" vertex="1" parent="1">
          <mxGeometry x="160" y="155" width="30" height="30" as="geometry" />
        </mxCell>
        <mxCell id="X9OZlVAOR6Cq23795ibG-5" value="E" style="text;html=1;align=center;verticalAlign=middle;resizable=0;points=[];autosize=1;strokeColor=none;fillColor=none;" vertex="1" parent="1">
          <mxGeometry x="205" y="155" width="30" height="30" as="geometry" />
        </mxCell>
        <mxCell id="X9OZlVAOR6Cq23795ibG-6" value="F" style="text;html=1;align=center;verticalAlign=middle;resizable=0;points=[];autosize=1;strokeColor=none;fillColor=none;" vertex="1" parent="1">
          <mxGeometry x="255" y="155" width="30" height="30" as="geometry" />
        </mxCell>
        <mxCell id="X9OZlVAOR6Cq23795ibG-7" value="" style="endArrow=classic;html=1;rounded=0;" edge="1" parent="1" source="X9OZlVAOR6Cq23795ibG-1" target="X9OZlVAOR6Cq23795ibG-2">
          <mxGeometry width="50" height="50" relative="1" as="geometry">
            <mxPoint x="397.5" y="250" as="sourcePoint" />
            <mxPoint x="447.5" y="200" as="targetPoint" />
          </mxGeometry>
        </mxCell>
        <mxCell id="X9OZlVAOR6Cq23795ibG-9" value="" style="endArrow=classic;html=1;rounded=0;" edge="1" parent="1" source="X9OZlVAOR6Cq23795ibG-1" target="X9OZlVAOR6Cq23795ibG-3">
          <mxGeometry width="50" height="50" relative="1" as="geometry">
            <mxPoint x="267.5" y="80" as="sourcePoint" />
            <mxPoint x="317.5" y="30" as="targetPoint" />
          </mxGeometry>
        </mxCell>
        <mxCell id="X9OZlVAOR6Cq23795ibG-10" value="" style="endArrow=classic;html=1;rounded=0;entryX=0.817;entryY=-0.011;entryDx=0;entryDy=0;entryPerimeter=0;" edge="1" parent="1" source="X9OZlVAOR6Cq23795ibG-2" target="X9OZlVAOR6Cq23795ibG-4">
          <mxGeometry width="50" height="50" relative="1" as="geometry">
            <mxPoint x="267.5" y="70" as="sourcePoint" />
            <mxPoint x="247.5" y="90" as="targetPoint" />
          </mxGeometry>
        </mxCell>
        <mxCell id="X9OZlVAOR6Cq23795ibG-11" value="" style="endArrow=classic;html=1;rounded=0;" edge="1" parent="1" source="X9OZlVAOR6Cq23795ibG-2" target="X9OZlVAOR6Cq23795ibG-5">
          <mxGeometry width="50" height="50" relative="1" as="geometry">
            <mxPoint x="222.94997486173952" y="120" as="sourcePoint" />
            <mxPoint x="194.51" y="164.66999999999996" as="targetPoint" />
          </mxGeometry>
        </mxCell>
        <mxCell id="X9OZlVAOR6Cq23795ibG-12" value="" style="endArrow=classic;html=1;rounded=0;entryX=0.25;entryY=0.056;entryDx=0;entryDy=0;entryPerimeter=0;" edge="1" parent="1" source="X9OZlVAOR6Cq23795ibG-2" target="X9OZlVAOR6Cq23795ibG-6">
          <mxGeometry width="50" height="50" relative="1" as="geometry">
            <mxPoint x="232" y="120" as="sourcePoint" />
            <mxPoint x="230.5" y="165" as="targetPoint" />
          </mxGeometry>
        </mxCell>
        <mxCell id="X9OZlVAOR6Cq23795ibG-13" value="1. 代理管理明细 A点击B代理的页面展示?&amp;nbsp; &amp;nbsp; &amp;nbsp;B直属用户+(D+E+F)直属用户?" style="text;html=1;align=center;verticalAlign=middle;resizable=0;points=[];autosize=1;strokeColor=none;fillColor=none;" vertex="1" parent="1">
          <mxGeometry x="95" y="210" width="420" height="30" as="geometry" />
        </mxCell>
        <mxCell id="X9OZlVAOR6Cq23795ibG-14" value="2. A的用户管理界面展示? A的直属用户+B的直属用户+(D+E+F)直属用户?" style="text;html=1;align=center;verticalAlign=middle;resizable=0;points=[];autosize=1;strokeColor=none;fillColor=none;" vertex="1" parent="1">
          <mxGeometry x="95" y="240" width="410" height="30" as="geometry" />
        </mxCell>
        <mxCell id="X9OZlVAOR6Cq23795ibG-15" value="3. A的代理管理展示? B代理+C代理?&amp;nbsp;" style="text;html=1;align=center;verticalAlign=middle;resizable=0;points=[];autosize=1;strokeColor=none;fillColor=none;" vertex="1" parent="1">
          <mxGeometry x="95" y="270" width="220" height="30" as="geometry" />
        </mxCell>
        <mxCell id="X9OZlVAOR6Cq23795ibG-16" value="4. 线路账号管理 状态已分配是指分配给了下级代理? 那么分配给了用户是否需要一个状态,分配给了用户就不能向下分配" style="text;html=1;align=center;verticalAlign=middle;resizable=0;points=[];autosize=1;strokeColor=none;fillColor=none;" vertex="1" parent="1">
          <mxGeometry x="95" y="300" width="650" height="30" as="geometry" />
        </mxCell>
      </root>
    </mxGraphModel>
  </diagram>
</mxfile>
